<svg width="20" height="20" viewBox="0 0 20 20" fill="none" xmlns="http://www.w3.org/2000/svg">
<path d="M13 1H7C3.68629 1 1 3.68629 1 7V13C1 16.3137 3.68629 19 7 19H13C16.3137 19 19 16.3137 19 13V7C19 3.68629 16.3137 1 13 1Z" stroke="#F1EBDE" style="stroke:#F1EBDE;stroke:color(display-p3 0.9451 0.9216 0.8706);stroke-opacity:1;" stroke-width="1.5" stroke-linecap="round" stroke-linejoin="round"/>
<path d="M10 14C12.2091 14 14 12.2091 14 10C14 7.79086 12.2091 6 10 6C7.79086 6 6 7.79086 6 10C6 12.2091 7.79086 14 10 14Z" stroke="#F1EBDE" style="stroke:#F1EBDE;stroke:color(display-p3 0.9451 0.9216 0.8706);stroke-opacity:1;" stroke-width="1.5" stroke-linecap="round" stroke-linejoin="round"/>
<path d="M15 5.89C15.5523 5.89 16 5.44228 16 4.89C16 4.33771 15.5523 3.89 15 3.89C14.4477 3.89 14 4.33771 14 4.89C14 5.44228 14.4477 5.89 15 5.89Z" fill="#F1EBDE" style="fill:#F1EBDE;fill:color(display-p3 0.9451 0.9216 0.8706);fill-opacity:1;"/>
</svg>
